Coordinates
version=1
nRows=13
nColumns=40
inDegrees=yes

Units are S.I. units (second, meters, Newtons, ...)
Angles are in degrees.

endheader
time	pelvis_tilt	pelvis_list	pelvis_rotation	pelvis_tx	pelvis_ty	pelvis_tz	hip_flexion_r	hip_adduction_r	hip_rotation_r	knee_angle_r	knee_angle_r_beta	ankle_angle_r	subtalar_angle_r	mtp_angle_r	hip_flexion_l	hip_adduction_l	hip_rotation_l	knee_angle_l	knee_angle_l_beta	ankle_angle_l	subtalar_angle_l	mtp_angle_l	lumbar_extension	lumbar_bending	lumbar_rotation	arm_flex_r	arm_add_r	arm_rot_r	elbow_flex_r	pro_sup_r	wrist_flex_r	wrist_dev_r	arm_flex_l	arm_add_l	arm_rot_l	elbow_flex_l	pro_sup_l	wrist_flex_l	wrist_dev_l
      0.81000000	     -1.83238257	     -1.26887352	      2.62871222	     -0.44522464	      0.88737448	     -0.93217892	      3.74645842	      3.40799488	    -15.94306804	    -19.76998679	     -0.34505136	     14.04381894	      0.20533224	     -0.05880172	     30.12395407	      6.34440418	      9.72676580	    -36.51981404	     -0.63739100	      8.71049555	     15.68464284	     16.02980723	     -4.75979357	      1.02392268	     -0.65110694	      5.90981903	     -9.70398332	    -10.83328023	     34.77881832	     89.95437384	      0.00000000	      0.00000000	     -3.77428917	      7.96874426	     17.37120724	     23.53645517	     89.95437384	      0.00000000	      0.00000000
      0.82000000	     -2.01385542	     -1.35813848	      2.54094552	     -0.43986518	      0.88658105	     -0.93246727	      3.48909445	      3.47119004	    -16.10028294	    -19.65565160	     -0.34305584	     14.27934097	      0.33906704	     -0.17543857	     30.57755608	      6.45888412	     10.13577864	    -34.88083467	     -0.60878541	      8.46675686	     15.13869189	     15.77803101	     -4.61998246	      1.05867776	     -0.51357107	      5.97088022	     -9.77434574	    -10.71569577	     35.09936006	     89.95437384	      0.00000000	      0.00000000	     -3.98104452	      7.91415383	     17.54509206	     23.41981116	     89.95437384	      0.00000000	      0.00000000
      0.83000000	     -2.10683358	     -1.22382217	      2.49926263	     -0.43429804	      0.88603858	     -0.93306253	      3.10775407	      3.29907634	    -16.02269889	    -19.57955413	     -0.34172769	     14.52093015	      0.62030024	     -0.37181667	     30.75053899	      6.30949273	     10.65249694	    -32.99980311	     -0.57595522	      7.88538487	     13.95239421	     15.28495699	     -4.58256460	      0.86546066	     -0.44657469	      5.95920609	     -9.83092632	    -10.55604186	     35.50676520	     89.95437384	      0.00000000	      0.00000000	     -4.10440584	      7.87603630	     17.89966734	     23.16605037	     89.95437384	      0.00000000	      0.00000000
      0.84000000	     -2.15514778	     -1.15349070	      2.36759962	     -0.42869682	      0.88549806	     -0.93354580	      2.72840292	      3.14328448	    -16.14047203	    -19.57194281	     -0.34159484	     14.73974752	      1.01769198	     -0.61314825	     30.91007859	      6.31867497	     11.36477706	    -31.35430065	     -0.54723578	      7.60669176	     12.70233543	     14.64508220	     -4.59101609	      0.73223164	     -0.31617922	      6.03631051	     -9.86014116	    -10.45674586	     35.74279174	     89.95437384	      0.00000000	      0.00000000	     -4.22257103	      7.82520853	     18.26314159	     22.94440521	     89.95437384	      0.00000000	      0.00000000
      0.85000000	     -1.99447583	     -1.07286028	      2.24193522	     -0.42270668	      0.88524876	     -0.93412118	      2.04454481	      2.94771228	    -16.49661581	    -19.50408802	     -0.34041055	     15.06914062	      1.82792454	     -1.13768178	     30.83345680	      6.45538704	     12.53138602	    -29.91935001	     -0.52219117	      7.43119088	     10.80881827	     13.15608399	     -4.81262418	      0.59701504	     -0.20579390	      6.12819383	     -9.82104280	    -10.53577012	     35.94057541	     89.95437384	      0.00000000	      0.00000000	     -4.30626960	      7.72534320	     18.85667608	     22.73291487	     89.95437384	      0.00000000	      0.00000000
      0.86000000	     -2.25641563	     -1.25297641	      2.21713314	     -0.41700478	      0.88419742	     -0.93485616	      1.89755072	      3.07340273	    -16.67907206	    -19.46538500	     -0.33973506	     15.23706180	      1.85421100	     -1.21692652	     31.42237046	      6.58785184	     12.88525718	    -28.82537508	     -0.50309770	      7.56297338	     10.38585440	     12.90634138	     -4.52670502	      0.74076201	     -0.18061046	      6.11981921	     -9.86697785	    -10.47662266	     36.10006257	     89.95437384	      0.00000000	      0.00000000	     -4.54508028	      7.68397120	     18.86854983	     22.66591318	     89.95437384	      0.00000000	      0.00000000
      0.87000000	     -2.30303714	     -1.11814834	      1.95427418	     -0.41092089	      0.88349222	     -0.93536893	      1.62900459	      2.66364695	    -17.25686346	    -19.70733712	     -0.34395792	     15.12629863	      2.97451526	     -6.70978620	     31.43298291	      6.77005805	     14.24883237	    -27.23224729	     -0.47529238	      5.22421768	      9.37060974	     -3.25302794	     -4.49734402	      0.51591009	      0.06498629	      6.09614719	     -9.88696196	    -10.39521055	     36.32375110	     89.95437384	      0.00000000	      0.00000000	     -4.64758658	      7.62530536	     19.34061170	     22.48627849	     89.95437384	      0.00000000	      0.00000000
      0.88000000	     -2.47710436	     -1.25446461	      1.95789305	     -0.40515162	      0.88252501	     -0.93626567	      1.42399847	      2.73875024	    -17.33928758	    -19.78395452	     -0.34529515	     15.16760223	      2.90133020	     -6.66581759	     31.99019979	      6.86476559	     14.56808314	    -26.57914624	     -0.46389361	      5.30851014	      9.16102413	     -3.23081904	     -4.33419015	      0.60486650	      0.02005529	      6.13586641	     -9.87973595	    -10.39059402	     36.42877684	     89.95437384	      0.00000000	      0.00000000	     -4.83324004	      7.62705917	     19.31976443	     22.46735568	     89.95437384	      0.00000000	      0.00000000
      0.89000000	     -2.59810990	     -1.13329554	      1.58048765	     -0.39903833	      0.88181534	     -0.93691432	      1.23699231	      2.48696151	    -17.05584316	    -20.04237366	     -0.34980541	     15.45768474	      3.19706015	     -6.69073285	     32.06339022	      7.02073413	     15.74277427	    -25.50937966	     -0.44522267	      4.83888745	      6.64065634	     -3.69525023	     -4.21226032	      0.40073102	      0.37074638	      6.14493054	     -9.86173137	    -10.47217433	     36.41135745	     89.95437384	      0.00000000	      0.00000000	     -4.92497192	      7.51095887	     19.80311357	     22.32287596	     89.95437384	      0.00000000	      0.00000000
      0.90000000	     -2.75063317	     -1.24574768	      1.54014837	     -0.39296607	      0.88087778	     -0.93797823	      1.01713709	      2.51418300	    -17.09013907	    -20.15167402	     -0.35171306	     15.54257849	      3.12426955	     -6.65684764	     32.48746331	      7.09535908	     15.96244487	    -25.03925043	     -0.43701736	      4.85103700	      6.43796146	     -3.68198316	     -4.03795965	      0.47095075	      0.34383569	      6.14952537	     -9.85061346	    -10.47090782	     36.44687183	     89.95437384	      0.00000000	      0.00000000	     -5.10366655	      7.48694343	     19.78587775	     22.30610703	     89.95437384	      0.00000000	      0.00000000
      0.91000000	     -2.84343274	     -1.15702409	      1.29396498	     -0.38672624	      0.88018248	     -0.93885341	      0.77303527	      2.32481298	    -16.74972238	    -20.40547516	     -0.35614273	     15.85723812	      3.27163974	     -6.70093704	     32.57253801	      7.09208984	     16.46970424	    -24.35490058	     -0.42507320	      4.45042973	      5.28082888	     -3.86971961	     -3.94923462	      0.28823344	      0.54235624	      6.18456372	     -9.77779547	    -10.60728756	     36.30643493	     89.95437384	      0.00000000	      0.00000000	     -5.16947266	      7.44431626	     20.09018370	     22.17808482	     89.95437384	      0.00000000	      0.00000000
      0.92000000	     -2.93960834	     -1.24525226	      1.15969011	     -0.38032930	      0.87927460	     -0.93983641	      0.50589711	      2.30733820	    -16.79412632	    -20.56652794	     -0.35895363	     15.88799612	      3.19328119	     -6.65683685	     32.83834470	      7.20221353	     16.60813855	    -24.19243815	     -0.42223770	      4.43581276	      5.17528038	     -3.84442486	     -3.83086679	      0.30231909	      0.59629519	      6.14906746	     -9.75778085	    -10.60528543	     36.31749770	     89.95437384	      0.00000000	      0.00000000	     -5.36099919	      7.43999579	     20.06118275	     22.19669030	     89.95437384	      0.00000000	      0.00000000
      0.93000000	     -3.01898608	     -1.30746611	      1.00435053	     -0.37380881	      0.87845659	     -0.94093277	      0.19950456	      2.24377593	    -16.72337051	    -20.74562942	     -0.36207954	     15.92635805	      3.15303802	     -6.61618468	     33.02913356	      7.27491242	     16.67923283	    -24.12740567	     -0.42110267	      4.36773654	      5.07649540	     -3.81139791	     -3.72032372	      0.28895354	      0.68747499	      6.06269816	     -9.72027391	    -10.60303705	     36.26964892	     89.95437384	      0.00000000	      0.00000000	     -5.49615948	      7.40788029	     20.04427565	     22.23169882	     89.95437384	      0.00000000	      0.00000000
